<!DOCTYPE svg PUBLIC "-//W3C//DTD SVG 20010904//EN" "http://www.w3.org/TR/2001/REC-SVG-20010904/DTD/svg10.dtd">
<svg version="1.0" xmlns="http://www.w3.org/2000/svg" width="374px" height="262px" viewBox="0 0 3740 2620" preserveAspectRatio="xMidYMid meet">
<g id="layer1" fill="#000000" stroke="none">
 <path d="M1700 2486 c-43 -9 -76 -27 -155 -87 -177 -134 -155 -125 -412 -169 -126 -22 -315 -49 -419 -60 l-189 -19 -123 36 c-115 34 -126 36 -150 22 l-27 -15 -8 -239 c-4 -132 -19 -492 -33 -799 -15 -339 -21 -563 -16 -568 6 -6 47 -18 92 -28 45 -10 84 -20 86 -23 3 -3 9 -33 14 -67 5 -35 13 -67 17 -71 5 -5 50 -13 101 -18 50 -5 96 -12 102 -16 5 -3 12 -33 16 -66 4 -32 10 -62 15 -65 4 -2 134 9 288 26 l279 30 258 90 c142 50 274 101 293 115 20 14 55 40 79 57 l43 32 217 -106 217 -106 305 -53 c298 -51 309 -52 415 -43 l110 9 22 40 c22 39 23 40 90 45 l68 5 5 59 5 60 112 30 c62 17 117 36 123 42 14 14 22 -30 -141 809 -133 690 -169 859 -186 876 -7 7 -118 0 -323 -20 l-312 -30 -152 20 c-124 17 -426 74 -431 82 -49 73 -123 158 -154 175 -43 25 -61 26 -141 8z"/>
 </g>

</svg>